<?xml version="1.0" encoding="UTF-8"?>
<svg id="Layer_1" data-name="Layer 1" xmlns="http://www.w3.org/2000/svg" viewBox="0 0 343.18 254.43">
  <defs>
    <style>
      .cls-1 {
        fill: #CA1E52;
      }

      .cls-1, .cls-2, .cls-3, .cls-4, .cls-5, .cls-6, .cls-7, .cls-8, .cls-9, .cls-10 {
        stroke: #2b0f34;
        stroke-linejoin: round;
      }

      .cls-2, .cls-4 {
        fill: #70c384;
      }

      .cls-3 {
        fill: #f05141;
      }

      .cls-4, .cls-8 {
        stroke-linecap: round;
      }

      .cls-5 {
        fill: #604ea0;
      }

      .cls-6, .cls-8 {
        fill: #3ab8ea;
      }

      .cls-7 {
        fill: #ca1e52;
      }

      .cls-9 {
        fill: #37b8ea;
      }

      .cls-10 {
        fill: #f05041;
      }
    </style>
  </defs>
  <path id="jigsaw_piece" data-name="jigsaw piece" class="cls-5" d="M83.23,4.91s7.6,57.67,0,61.52c-1.84,.93-7.34,2.77-14.69-1.84-12.5-7.83-30.34-20.41-44.62-19.73-12.13,.57-21.68,10.7-23.22,41.41-3.38,67.62,37.35,33.6,62.29,19.07,7.57-4.41,18.55-2.17,20.24-.89,7.27,5.51-3.28,95.91,0,99.54,3.28,3.63,75.59-4.18,81.65,0,6.06,4.18,.83,10.42-1.1,13.27-1.93,2.85-11.02,7.67-11.02,20.16s20.2,16.53,32.69,16.53,28.97-.92,30.85-12.12c1.88-11.2-4.45-20.38-7.35-24.61-2.89-4.22-3.53-10.65,.65-13.22,4.17-2.57,84.93,0,84.93,0V4.91s-71.07-9.92-84.93,0c-13.87,9.92,16.62,17.26-.1,39.48-13.04,17.45-32.19,14.34-51.24,.92-15.98-20.75,23.14-32.69,7.16-40.4-15.98-7.71-82.2,0-82.2,0Z"/>
  <g id="letters">
    <path class="cls-1" d="M99.59,74.26c-4.89-9.13-20.05-5.17-24.47-3.53s-15.25,6.61-21.05,12.22l15.85,51.28c8.88-5.5,17.54-9.19,25.98-11.11-4.88-6.69-7.92-9.95-11.08-25.59,0,0,19.66-14.14,14.77-23.26Zm-29.32,22.18l-4.91-10.99s8.39-5.7,12.66-5.39,6.42,3.69,5.59,6.96-13.34,9.43-13.34,9.43Z"/>
    <path class="cls-4" d="M102.78,65.87c7.05,24.33,8.47,52.42,22.89,50.17,13.38-2.09,17.26-29.28,21.85-54.23l-7.28,.57c.64,1.51-7.33,19.9-14.73,19.77s-14.24-13.9-15.08-17.44l-7.66,1.17Z"/>
    <path class="cls-10" d="M216.31,53.35c.36,4.23-.2,7.32-1.2,9.87l23.8,3.82c-3.46,14.91-28.2,27.53-29.15,29.57s-1.58,13.01-1.58,13.01c0,0,31.84,5.52,33.29,4.58s4.12-12.23,4.02-12.48-16.08-1.63-16.08-1.63c16.75-.25,25.69-18.05,33.72-40.3l-46.82-6.44Z"/>
    <path class="cls-7" d="M153.44,57.4c1.26,4.05,1.39,7.19,.96,9.9l24.07-1.42c-.15,15.3-21.58,32.97-22.07,35.17s1.27,13.04,1.27,13.04c0,0,32.28-1.5,33.49-2.72s1.38-12.83,1.22-13.05-16.05,1.89-16.05,1.89c16.29-3.87,21.18-23.18,24.21-46.64l-47.1,3.83Z"/>
    <path class="cls-9" d="M268.14,59.54c-3.38,47.54-6.33,53.58-9.28,59.6,11.41,0,20.28,3.3,27.92,8.05,1.53,.64,9.42-12.92,7.56-16.11s-14.34-1.56-17.16-4.98c.02,.23,15.6-40.57,15.6-40.57-9.5-.25-17.73-2.44-24.63-5.99Z"/>
    <path class="cls-2" d="M314.09,70.44c.65,20.12-11.12,52.02-17.7,64.11-.38-.25,15.52,7.22,26.2,7.46,1.61,.72,8.32-9.33,6.38-10.62-.4-.27-6.74-3.66-7.36-3.87-2.68-.93,.42-12.99,2.4-12.53l7.41,.57c2.57-2.63,3.62-6.46,4.07-10.75l-8.69-3.31c-.75-2.19-.21-3.89,1.35-5.2l9.8,2.65c3.64-4.54,5-10.81,4.7-18.34-10.6-2.67-20.27-5.96-28.55-10.16Z"/>
    <path class="cls-6" d="M119.71,130.96c3.5,13.8,4.17,31.68,3.81,51.05,8.65,2.1,15.18,2.43,18.42,0-2.52-5.2-3.41-10.22-2.27-15.02h10.77c.58-3.35,.22-6.06-1.77-7.65-3.35,.18-6.3-.17-8.72-1.28-1.88-1.72-2.72-3.53-1.42-5.53,3.35,.75,6.73,.58,10.13-.28,1.94-6.15,2.71-12.76,1.77-20.05-9.49,2.76-20.03,.96-30.74-1.24Z"/>
    <path class="cls-8" d="M163.06,137.68c6.73,23.23,8.09,50.04,21.85,47.88,12.77-2,16.47-27.94,20.86-51.76l-6.94,.54c.61,1.44-7,19-14.06,18.87s-13.59-13.26-14.39-16.65l-7.31,1.11Z"/>
    <path class="cls-3" d="M277.05,153.76c-4.24-.16-7.25-1.08-9.66-2.39l-6.67,23.17c-14.38-5.24-23.91-31.33-25.82-32.52s-12.72-3.14-12.72-3.14c0,0-9.33,41.4-8.58,42.95s11.64,6.68,11.9,6.61,3.56-27.34,3.56-27.34c-1.12,17.57,18.55,32.88,35.92,38.35l12.07-45.69Z"/>
  </g>
</svg>